<mxfile host="Electron" modified="2024-02-14T05:48:25.731Z" agent="Mozilla/5.0 (Windows NT 10.0; Win64; x64) AppleWebKit/537.36 (KHTML, like Gecko) draw.io/21.7.5 Chrome/114.0.5735.289 Electron/25.8.1 Safari/537.36" etag="aWLHLkDQp1uxd0Vaz-Ba" version="21.7.5" type="device">
  <diagram name="Page-1" id="c3QlrqSvcJOBSdlCA-VQ">
    <mxGraphModel dx="2085" dy="1831" grid="1" gridSize="10" guides="1" tooltips="1" connect="1" arrows="1" fold="1" page="1" pageScale="1" pageWidth="850" pageHeight="1100" math="0" shadow="0">
      <root>
        <mxCell id="0" />
        <mxCell id="1" parent="0" />
        <mxCell id="3eyE_6HejMnimvi8fgBS-1" value="Unregisterd User" style="shape=umlActor;verticalLabelPosition=bottom;verticalAlign=top;html=1;outlineConnect=0;" parent="1" vertex="1">
          <mxGeometry x="-90" y="-20" width="30" height="60" as="geometry" />
        </mxCell>
        <mxCell id="3eyE_6HejMnimvi8fgBS-5" style="edgeStyle=orthogonalEdgeStyle;rounded=0;orthogonalLoop=1;jettySize=auto;html=1;" parent="1" source="3eyE_6HejMnimvi8fgBS-4" target="3eyE_6HejMnimvi8fgBS-1" edge="1">
          <mxGeometry relative="1" as="geometry" />
        </mxCell>
        <mxCell id="3eyE_6HejMnimvi8fgBS-4" value="Registerd User" style="shape=umlActor;verticalLabelPosition=bottom;verticalAlign=top;html=1;outlineConnect=0;" parent="1" vertex="1">
          <mxGeometry x="-90" y="210" width="30" height="60" as="geometry" />
        </mxCell>
        <mxCell id="3eyE_6HejMnimvi8fgBS-6" value="Register to system" style="ellipse;whiteSpace=wrap;html=1;" parent="1" vertex="1">
          <mxGeometry x="210" y="-100" width="120" height="40" as="geometry" />
        </mxCell>
        <mxCell id="3eyE_6HejMnimvi8fgBS-7" value="" style="endArrow=none;html=1;rounded=0;exitX=1;exitY=0.3333333333333333;exitDx=0;exitDy=0;exitPerimeter=0;entryX=0;entryY=0.5;entryDx=0;entryDy=0;" parent="1" source="3eyE_6HejMnimvi8fgBS-1" target="3eyE_6HejMnimvi8fgBS-6" edge="1">
          <mxGeometry width="50" height="50" relative="1" as="geometry">
            <mxPoint x="430" y="270" as="sourcePoint" />
            <mxPoint x="480" y="220" as="targetPoint" />
          </mxGeometry>
        </mxCell>
        <mxCell id="3eyE_6HejMnimvi8fgBS-8" value="View Vehicles" style="ellipse;whiteSpace=wrap;html=1;" parent="1" vertex="1">
          <mxGeometry x="210" y="-50" width="120" height="40" as="geometry" />
        </mxCell>
        <mxCell id="3eyE_6HejMnimvi8fgBS-9" value="Filter Vehicles" style="ellipse;whiteSpace=wrap;html=1;" parent="1" vertex="1">
          <mxGeometry x="210" width="120" height="40" as="geometry" />
        </mxCell>
        <mxCell id="3eyE_6HejMnimvi8fgBS-10" value="Select Vehicle" style="ellipse;whiteSpace=wrap;html=1;" parent="1" vertex="1">
          <mxGeometry x="210" y="50" width="120" height="40" as="geometry" />
        </mxCell>
        <mxCell id="3eyE_6HejMnimvi8fgBS-11" value="" style="endArrow=none;html=1;rounded=0;exitX=1;exitY=0.3333333333333333;exitDx=0;exitDy=0;exitPerimeter=0;entryX=0;entryY=0.5;entryDx=0;entryDy=0;" parent="1" source="3eyE_6HejMnimvi8fgBS-1" target="3eyE_6HejMnimvi8fgBS-8" edge="1">
          <mxGeometry width="50" height="50" relative="1" as="geometry">
            <mxPoint x="140" y="180" as="sourcePoint" />
            <mxPoint x="240" y="100" as="targetPoint" />
          </mxGeometry>
        </mxCell>
        <mxCell id="3eyE_6HejMnimvi8fgBS-13" value="" style="endArrow=none;html=1;rounded=0;exitX=1;exitY=0.3333333333333333;exitDx=0;exitDy=0;exitPerimeter=0;entryX=0;entryY=0.5;entryDx=0;entryDy=0;" parent="1" source="3eyE_6HejMnimvi8fgBS-1" target="3eyE_6HejMnimvi8fgBS-9" edge="1">
          <mxGeometry width="50" height="50" relative="1" as="geometry">
            <mxPoint x="150" y="190" as="sourcePoint" />
            <mxPoint x="250" y="160" as="targetPoint" />
          </mxGeometry>
        </mxCell>
        <mxCell id="3eyE_6HejMnimvi8fgBS-14" value="" style="endArrow=none;html=1;rounded=0;exitX=1;exitY=0.3333333333333333;exitDx=0;exitDy=0;exitPerimeter=0;entryX=0;entryY=0.5;entryDx=0;entryDy=0;" parent="1" source="3eyE_6HejMnimvi8fgBS-1" target="3eyE_6HejMnimvi8fgBS-10" edge="1">
          <mxGeometry width="50" height="50" relative="1" as="geometry">
            <mxPoint x="160" y="200" as="sourcePoint" />
            <mxPoint x="260" y="170" as="targetPoint" />
          </mxGeometry>
        </mxCell>
        <mxCell id="3eyE_6HejMnimvi8fgBS-16" value="" style="ellipse;whiteSpace=wrap;html=1;" parent="1" vertex="1">
          <mxGeometry x="380" y="110" width="160" height="70" as="geometry" />
        </mxCell>
        <mxCell id="3eyE_6HejMnimvi8fgBS-17" value="" style="endArrow=none;html=1;rounded=0;exitX=1;exitY=0.3333333333333333;exitDx=0;exitDy=0;exitPerimeter=0;entryX=0;entryY=0.5;entryDx=0;entryDy=0;" parent="1" source="3eyE_6HejMnimvi8fgBS-4" target="3eyE_6HejMnimvi8fgBS-16" edge="1">
          <mxGeometry width="50" height="50" relative="1" as="geometry">
            <mxPoint x="140" y="180" as="sourcePoint" />
            <mxPoint x="240" y="250" as="targetPoint" />
          </mxGeometry>
        </mxCell>
        <mxCell id="3eyE_6HejMnimvi8fgBS-19" value="Manage Profile" style="ellipse;whiteSpace=wrap;html=1;" parent="1" vertex="1">
          <mxGeometry x="310" y="200" width="120" height="40" as="geometry" />
        </mxCell>
        <mxCell id="3eyE_6HejMnimvi8fgBS-20" value="" style="endArrow=none;html=1;rounded=0;exitX=1;exitY=0.3333333333333333;exitDx=0;exitDy=0;exitPerimeter=0;entryX=0;entryY=0.5;entryDx=0;entryDy=0;" parent="1" source="3eyE_6HejMnimvi8fgBS-4" target="3eyE_6HejMnimvi8fgBS-19" edge="1">
          <mxGeometry width="50" height="50" relative="1" as="geometry">
            <mxPoint x="140" y="340" as="sourcePoint" />
            <mxPoint x="250" y="260" as="targetPoint" />
          </mxGeometry>
        </mxCell>
        <mxCell id="3eyE_6HejMnimvi8fgBS-23" value="Logout" style="ellipse;whiteSpace=wrap;html=1;" parent="1" vertex="1">
          <mxGeometry x="290" y="250" width="120" height="40" as="geometry" />
        </mxCell>
        <mxCell id="3eyE_6HejMnimvi8fgBS-24" value="" style="endArrow=none;html=1;rounded=0;exitX=1;exitY=0.3333333333333333;exitDx=0;exitDy=0;exitPerimeter=0;entryX=0;entryY=0.5;entryDx=0;entryDy=0;" parent="1" source="3eyE_6HejMnimvi8fgBS-4" target="3eyE_6HejMnimvi8fgBS-23" edge="1">
          <mxGeometry width="50" height="50" relative="1" as="geometry">
            <mxPoint x="130" y="380" as="sourcePoint" />
            <mxPoint x="250" y="310" as="targetPoint" />
          </mxGeometry>
        </mxCell>
        <mxCell id="3eyE_6HejMnimvi8fgBS-26" style="edgeStyle=orthogonalEdgeStyle;rounded=0;orthogonalLoop=1;jettySize=auto;html=1;" parent="1" source="3eyE_6HejMnimvi8fgBS-25" target="3eyE_6HejMnimvi8fgBS-4" edge="1">
          <mxGeometry relative="1" as="geometry" />
        </mxCell>
        <mxCell id="3eyE_6HejMnimvi8fgBS-25" value="Renter" style="shape=umlActor;verticalLabelPosition=bottom;verticalAlign=top;html=1;outlineConnect=0;" parent="1" vertex="1">
          <mxGeometry x="-90" y="510" width="30" height="60" as="geometry" />
        </mxCell>
        <mxCell id="3eyE_6HejMnimvi8fgBS-27" value="Select a vehicle rental option" style="ellipse;whiteSpace=wrap;html=1;" parent="1" vertex="1">
          <mxGeometry x="205" y="380" width="130" height="50" as="geometry" />
        </mxCell>
        <mxCell id="3eyE_6HejMnimvi8fgBS-28" value="" style="endArrow=none;html=1;rounded=0;exitX=1;exitY=0.3333333333333333;exitDx=0;exitDy=0;exitPerimeter=0;entryX=0;entryY=0.5;entryDx=0;entryDy=0;" parent="1" source="3eyE_6HejMnimvi8fgBS-25" target="3eyE_6HejMnimvi8fgBS-27" edge="1">
          <mxGeometry width="50" height="50" relative="1" as="geometry">
            <mxPoint x="150" y="440" as="sourcePoint" />
            <mxPoint x="270" y="420" as="targetPoint" />
          </mxGeometry>
        </mxCell>
        <mxCell id="3eyE_6HejMnimvi8fgBS-39" value="" style="ellipse;whiteSpace=wrap;html=1;" parent="1" vertex="1">
          <mxGeometry x="210" y="440" width="130" height="80" as="geometry" />
        </mxCell>
        <mxCell id="3eyE_6HejMnimvi8fgBS-40" value="" style="endArrow=none;html=1;rounded=0;exitX=1;exitY=0.3333333333333333;exitDx=0;exitDy=0;exitPerimeter=0;entryX=0;entryY=0.5;entryDx=0;entryDy=0;" parent="1" source="3eyE_6HejMnimvi8fgBS-25" target="3eyE_6HejMnimvi8fgBS-39" edge="1">
          <mxGeometry width="50" height="50" relative="1" as="geometry">
            <mxPoint x="130" y="570" as="sourcePoint" />
            <mxPoint x="270" y="470" as="targetPoint" />
          </mxGeometry>
        </mxCell>
        <mxCell id="3eyE_6HejMnimvi8fgBS-61" style="edgeStyle=orthogonalEdgeStyle;rounded=0;orthogonalLoop=1;jettySize=auto;html=1;exitX=0;exitY=0.3333333333333333;exitDx=0;exitDy=0;exitPerimeter=0;entryX=0;entryY=0.3333333333333333;entryDx=0;entryDy=0;entryPerimeter=0;" parent="1" edge="1" target="3eyE_6HejMnimvi8fgBS-4" source="3eyE_6HejMnimvi8fgBS-41">
          <mxGeometry relative="1" as="geometry">
            <Array as="points">
              <mxPoint x="-130" y="940" />
              <mxPoint x="-130" y="230" />
            </Array>
            <mxPoint x="40" y="940" as="sourcePoint" />
            <mxPoint x="90" y="330" as="targetPoint" />
          </mxGeometry>
        </mxCell>
        <mxCell id="3eyE_6HejMnimvi8fgBS-41" value="Owner" style="shape=umlActor;verticalLabelPosition=bottom;verticalAlign=top;html=1;outlineConnect=0;" parent="1" vertex="1">
          <mxGeometry x="-90" y="920" width="30" height="60" as="geometry" />
        </mxCell>
        <mxCell id="3eyE_6HejMnimvi8fgBS-47" value="Manage Booking Request" style="ellipse;whiteSpace=wrap;html=1;" parent="1" vertex="1">
          <mxGeometry x="247.5" y="830" width="120" height="40" as="geometry" />
        </mxCell>
        <mxCell id="3eyE_6HejMnimvi8fgBS-49" value="Manage Drivers" style="ellipse;whiteSpace=wrap;html=1;" parent="1" vertex="1">
          <mxGeometry x="205" y="1130" width="120" height="40" as="geometry" />
        </mxCell>
        <mxCell id="3eyE_6HejMnimvi8fgBS-50" value="Manage Vehicle" style="ellipse;whiteSpace=wrap;html=1;" parent="1" vertex="1">
          <mxGeometry x="237.5" y="895" width="120" height="40" as="geometry" />
        </mxCell>
        <mxCell id="3eyE_6HejMnimvi8fgBS-53" value="Rental history and earning" style="ellipse;whiteSpace=wrap;html=1;" parent="1" vertex="1">
          <mxGeometry x="200" y="1200" width="120" height="40" as="geometry" />
        </mxCell>
        <mxCell id="3eyE_6HejMnimvi8fgBS-56" value="" style="endArrow=none;html=1;rounded=0;exitX=1;exitY=0.3333333333333333;exitDx=0;exitDy=0;exitPerimeter=0;entryX=0;entryY=0.5;entryDx=0;entryDy=0;" parent="1" source="3eyE_6HejMnimvi8fgBS-41" target="3eyE_6HejMnimvi8fgBS-47" edge="1">
          <mxGeometry width="50" height="50" relative="1" as="geometry">
            <mxPoint x="137.5" y="800" as="sourcePoint" />
            <mxPoint x="247.5" y="780" as="targetPoint" />
          </mxGeometry>
        </mxCell>
        <mxCell id="3eyE_6HejMnimvi8fgBS-57" value="" style="endArrow=none;html=1;rounded=0;exitX=1;exitY=0.3333333333333333;exitDx=0;exitDy=0;exitPerimeter=0;entryX=0;entryY=0.5;entryDx=0;entryDy=0;" parent="1" source="3eyE_6HejMnimvi8fgBS-41" target="3eyE_6HejMnimvi8fgBS-50" edge="1">
          <mxGeometry width="50" height="50" relative="1" as="geometry">
            <mxPoint x="147.5" y="810" as="sourcePoint" />
            <mxPoint x="257.5" y="790" as="targetPoint" />
          </mxGeometry>
        </mxCell>
        <mxCell id="3eyE_6HejMnimvi8fgBS-58" value="" style="endArrow=none;html=1;rounded=0;exitX=1;exitY=0.3333333333333333;exitDx=0;exitDy=0;exitPerimeter=0;entryX=0;entryY=0.5;entryDx=0;entryDy=0;" parent="1" source="3eyE_6HejMnimvi8fgBS-41" target="3eyE_6HejMnimvi8fgBS-49" edge="1">
          <mxGeometry width="50" height="50" relative="1" as="geometry">
            <mxPoint x="157.5" y="820" as="sourcePoint" />
            <mxPoint x="267.5" y="800" as="targetPoint" />
          </mxGeometry>
        </mxCell>
        <mxCell id="3eyE_6HejMnimvi8fgBS-59" value="" style="endArrow=none;html=1;rounded=0;exitX=1;exitY=0.3333333333333333;exitDx=0;exitDy=0;exitPerimeter=0;entryX=0;entryY=0.5;entryDx=0;entryDy=0;" parent="1" source="3eyE_6HejMnimvi8fgBS-41" target="3eyE_6HejMnimvi8fgBS-53" edge="1">
          <mxGeometry width="50" height="50" relative="1" as="geometry">
            <mxPoint x="167.5" y="830" as="sourcePoint" />
            <mxPoint x="277.5" y="810" as="targetPoint" />
          </mxGeometry>
        </mxCell>
        <mxCell id="_OHZHRaOxq0N2sjxsKgl-23" style="edgeStyle=orthogonalEdgeStyle;rounded=0;orthogonalLoop=1;jettySize=auto;html=1;entryX=0;entryY=0.3333333333333333;entryDx=0;entryDy=0;entryPerimeter=0;" parent="1" source="3eyE_6HejMnimvi8fgBS-62" target="3eyE_6HejMnimvi8fgBS-4" edge="1">
          <mxGeometry relative="1" as="geometry">
            <Array as="points">
              <mxPoint x="-150" y="1450" />
              <mxPoint x="-150" y="230" />
            </Array>
          </mxGeometry>
        </mxCell>
        <mxCell id="3eyE_6HejMnimvi8fgBS-62" value="Driver" style="shape=umlActor;verticalLabelPosition=bottom;verticalAlign=top;html=1;outlineConnect=0;" parent="1" vertex="1">
          <mxGeometry x="-60" y="1430" width="30" height="60" as="geometry" />
        </mxCell>
        <mxCell id="3eyE_6HejMnimvi8fgBS-63" value="View Payments" style="ellipse;whiteSpace=wrap;html=1;" parent="1" vertex="1">
          <mxGeometry x="200" y="1370" width="120" height="30" as="geometry" />
        </mxCell>
        <mxCell id="3eyE_6HejMnimvi8fgBS-64" value="" style="endArrow=none;html=1;rounded=0;exitX=1;exitY=0.3333333333333333;exitDx=0;exitDy=0;exitPerimeter=0;entryX=0;entryY=0.5;entryDx=0;entryDy=0;" parent="1" source="3eyE_6HejMnimvi8fgBS-62" target="3eyE_6HejMnimvi8fgBS-63" edge="1">
          <mxGeometry width="50" height="50" relative="1" as="geometry">
            <mxPoint x="100" y="1290" as="sourcePoint" />
            <mxPoint x="210" y="1375" as="targetPoint" />
          </mxGeometry>
        </mxCell>
        <mxCell id="_OHZHRaOxq0N2sjxsKgl-1" value="Maintanance&lt;br&gt;&amp;nbsp;Management &lt;br&gt;system" style="shape=umlActor;verticalLabelPosition=bottom;verticalAlign=top;html=1;outlineConnect=0;" parent="1" vertex="1">
          <mxGeometry x="1060" y="630" width="30" height="60" as="geometry" />
        </mxCell>
        <mxCell id="_OHZHRaOxq0N2sjxsKgl-2" value="Payment&amp;nbsp;&lt;br&gt;Management System" style="shape=umlActor;verticalLabelPosition=bottom;verticalAlign=top;html=1;outlineConnect=0;" parent="1" vertex="1">
          <mxGeometry x="1010" y="950" width="30" height="60" as="geometry" />
        </mxCell>
        <mxCell id="_OHZHRaOxq0N2sjxsKgl-3" value="Vehicle Manager" style="shape=umlActor;verticalLabelPosition=bottom;verticalAlign=top;html=1;outlineConnect=0;" parent="1" vertex="1">
          <mxGeometry x="1060" y="220" width="30" height="60" as="geometry" />
        </mxCell>
        <mxCell id="_OHZHRaOxq0N2sjxsKgl-4" value="Hr Manager" style="shape=umlActor;verticalLabelPosition=bottom;verticalAlign=top;html=1;outlineConnect=0;" parent="1" vertex="1">
          <mxGeometry x="1060" y="1210" width="30" height="60" as="geometry" />
        </mxCell>
        <mxCell id="_OHZHRaOxq0N2sjxsKgl-6" value="for rent" style="ellipse;whiteSpace=wrap;html=1;" parent="1" vertex="1">
          <mxGeometry x="380" y="360" width="100" height="40" as="geometry" />
        </mxCell>
        <mxCell id="_OHZHRaOxq0N2sjxsKgl-7" value="for hire" style="ellipse;whiteSpace=wrap;html=1;" parent="1" vertex="1">
          <mxGeometry x="380" y="410" width="100" height="40" as="geometry" />
        </mxCell>
        <mxCell id="_OHZHRaOxq0N2sjxsKgl-8" value="" style="endArrow=classic;html=1;rounded=0;entryX=1;entryY=0.5;entryDx=0;entryDy=0;exitX=0;exitY=0.5;exitDx=0;exitDy=0;" parent="1" source="_OHZHRaOxq0N2sjxsKgl-6" target="3eyE_6HejMnimvi8fgBS-27" edge="1">
          <mxGeometry width="50" height="50" relative="1" as="geometry">
            <mxPoint x="320" y="520" as="sourcePoint" />
            <mxPoint x="370" y="470" as="targetPoint" />
          </mxGeometry>
        </mxCell>
        <mxCell id="_OHZHRaOxq0N2sjxsKgl-9" value="" style="endArrow=classic;html=1;rounded=0;entryX=1;entryY=0.5;entryDx=0;entryDy=0;exitX=0;exitY=0.5;exitDx=0;exitDy=0;" parent="1" source="_OHZHRaOxq0N2sjxsKgl-7" target="3eyE_6HejMnimvi8fgBS-27" edge="1">
          <mxGeometry width="50" height="50" relative="1" as="geometry">
            <mxPoint x="410" y="420" as="sourcePoint" />
            <mxPoint x="380" y="455" as="targetPoint" />
          </mxGeometry>
        </mxCell>
        <mxCell id="_OHZHRaOxq0N2sjxsKgl-10" value="Login to system" style="text;html=1;strokeColor=none;fillColor=none;align=center;verticalAlign=middle;whiteSpace=wrap;rounded=0;" parent="1" vertex="1">
          <mxGeometry x="415" y="110" width="90" height="30" as="geometry" />
        </mxCell>
        <mxCell id="_OHZHRaOxq0N2sjxsKgl-11" value="" style="endArrow=none;html=1;rounded=0;entryX=1;entryY=0.5;entryDx=0;entryDy=0;exitX=0;exitY=0.5;exitDx=0;exitDy=0;" parent="1" source="3eyE_6HejMnimvi8fgBS-16" target="3eyE_6HejMnimvi8fgBS-16" edge="1">
          <mxGeometry width="50" height="50" relative="1" as="geometry">
            <mxPoint x="250" y="260" as="sourcePoint" />
            <mxPoint x="300" y="210" as="targetPoint" />
          </mxGeometry>
        </mxCell>
        <mxCell id="_OHZHRaOxq0N2sjxsKgl-15" value="if user credentials is incorrect" style="text;html=1;strokeColor=none;fillColor=none;align=center;verticalAlign=middle;whiteSpace=wrap;rounded=0;" parent="1" vertex="1">
          <mxGeometry x="392.5" y="150" width="135" height="30" as="geometry" />
        </mxCell>
        <mxCell id="_OHZHRaOxq0N2sjxsKgl-19" value="&amp;lt;&amp;lt;extend&amp;gt;&amp;gt;" style="html=1;verticalAlign=bottom;labelBackgroundColor=none;endArrow=open;endFill=0;dashed=1;rounded=0;entryX=0.75;entryY=0;entryDx=0;entryDy=0;exitX=0.5;exitY=1;exitDx=0;exitDy=0;" parent="1" source="_OHZHRaOxq0N2sjxsKgl-16" target="_OHZHRaOxq0N2sjxsKgl-10" edge="1">
          <mxGeometry x="-0.0022" width="160" relative="1" as="geometry">
            <mxPoint x="655" y="-20" as="sourcePoint" />
            <mxPoint x="815" y="-20" as="targetPoint" />
            <mxPoint as="offset" />
          </mxGeometry>
        </mxCell>
        <mxCell id="_OHZHRaOxq0N2sjxsKgl-20" value="&amp;lt;&amp;lt;include&amp;gt;&amp;gt;" style="html=1;verticalAlign=bottom;labelBackgroundColor=none;endArrow=open;endFill=0;dashed=1;rounded=0;exitX=0.5;exitY=0;exitDx=0;exitDy=0;entryX=1;entryY=0.5;entryDx=0;entryDy=0;" parent="1" source="_OHZHRaOxq0N2sjxsKgl-10" target="3eyE_6HejMnimvi8fgBS-6" edge="1">
          <mxGeometry width="160" relative="1" as="geometry">
            <mxPoint x="645" y="-50" as="sourcePoint" />
            <mxPoint x="805" y="-50" as="targetPoint" />
          </mxGeometry>
        </mxCell>
        <mxCell id="_OHZHRaOxq0N2sjxsKgl-21" value="Check availability" style="ellipse;whiteSpace=wrap;html=1;" parent="1" vertex="1">
          <mxGeometry x="210" y="100" width="120" height="40" as="geometry" />
        </mxCell>
        <mxCell id="_OHZHRaOxq0N2sjxsKgl-22" value="" style="endArrow=none;html=1;rounded=0;exitX=1;exitY=0.3333333333333333;exitDx=0;exitDy=0;exitPerimeter=0;entryX=0;entryY=0.5;entryDx=0;entryDy=0;" parent="1" source="3eyE_6HejMnimvi8fgBS-1" target="_OHZHRaOxq0N2sjxsKgl-21" edge="1">
          <mxGeometry width="50" height="50" relative="1" as="geometry">
            <mxPoint x="140" y="180" as="sourcePoint" />
            <mxPoint x="220" y="80" as="targetPoint" />
          </mxGeometry>
        </mxCell>
        <mxCell id="_OHZHRaOxq0N2sjxsKgl-24" value="Manage payement" style="ellipse;whiteSpace=wrap;html=1;" parent="1" vertex="1">
          <mxGeometry x="230" y="310" width="120" height="40" as="geometry" />
        </mxCell>
        <mxCell id="_OHZHRaOxq0N2sjxsKgl-25" value="" style="endArrow=none;html=1;rounded=0;exitX=1;exitY=0.3333333333333333;exitDx=0;exitDy=0;exitPerimeter=0;entryX=0;entryY=0.5;entryDx=0;entryDy=0;" parent="1" source="3eyE_6HejMnimvi8fgBS-4" target="_OHZHRaOxq0N2sjxsKgl-24" edge="1">
          <mxGeometry width="50" height="50" relative="1" as="geometry">
            <mxPoint x="140" y="340" as="sourcePoint" />
            <mxPoint x="300" y="280" as="targetPoint" />
          </mxGeometry>
        </mxCell>
        <mxCell id="_OHZHRaOxq0N2sjxsKgl-27" value="place a booking" style="text;html=1;strokeColor=none;fillColor=none;align=center;verticalAlign=middle;whiteSpace=wrap;rounded=0;" parent="1" vertex="1">
          <mxGeometry x="220" y="450" width="100" height="30" as="geometry" />
        </mxCell>
        <mxCell id="_OHZHRaOxq0N2sjxsKgl-28" value="" style="endArrow=none;html=1;rounded=0;exitX=0;exitY=0.5;exitDx=0;exitDy=0;" parent="1" source="3eyE_6HejMnimvi8fgBS-39" edge="1">
          <mxGeometry width="50" height="50" relative="1" as="geometry">
            <mxPoint x="360" y="530" as="sourcePoint" />
            <mxPoint x="340" y="480" as="targetPoint" />
          </mxGeometry>
        </mxCell>
        <mxCell id="_OHZHRaOxq0N2sjxsKgl-29" value="if booking unsuccessful" style="text;html=1;strokeColor=none;fillColor=none;align=center;verticalAlign=middle;whiteSpace=wrap;rounded=0;" parent="1" vertex="1">
          <mxGeometry x="225" y="480" width="100" height="30" as="geometry" />
        </mxCell>
        <mxCell id="_OHZHRaOxq0N2sjxsKgl-30" value="Display Unsuccessful booking" style="ellipse;whiteSpace=wrap;html=1;" parent="1" vertex="1">
          <mxGeometry x="450" y="470" width="130" height="50" as="geometry" />
        </mxCell>
        <mxCell id="_OHZHRaOxq0N2sjxsKgl-31" value="&amp;lt;&amp;lt;extend&amp;gt;&amp;gt;" style="html=1;verticalAlign=bottom;labelBackgroundColor=none;endArrow=open;endFill=0;dashed=1;rounded=0;entryX=1;entryY=0.5;entryDx=0;entryDy=0;exitX=0;exitY=0.5;exitDx=0;exitDy=0;" parent="1" source="_OHZHRaOxq0N2sjxsKgl-30" target="3eyE_6HejMnimvi8fgBS-39" edge="1">
          <mxGeometry width="160" relative="1" as="geometry">
            <mxPoint x="655" y="-20" as="sourcePoint" />
            <mxPoint x="815" y="-20" as="targetPoint" />
          </mxGeometry>
        </mxCell>
        <mxCell id="_OHZHRaOxq0N2sjxsKgl-33" value="Accept Booking" style="ellipse;whiteSpace=wrap;html=1;" parent="1" vertex="1">
          <mxGeometry x="392.5" y="800" width="120" height="40" as="geometry" />
        </mxCell>
        <mxCell id="_OHZHRaOxq0N2sjxsKgl-34" value="Reject Booking" style="ellipse;whiteSpace=wrap;html=1;" parent="1" vertex="1">
          <mxGeometry x="407.5" y="880" width="120" height="40" as="geometry" />
        </mxCell>
        <mxCell id="_OHZHRaOxq0N2sjxsKgl-35" value="" style="endArrow=classic;html=1;rounded=0;entryX=1;entryY=0.5;entryDx=0;entryDy=0;exitX=0;exitY=0.5;exitDx=0;exitDy=0;" parent="1" source="_OHZHRaOxq0N2sjxsKgl-33" target="3eyE_6HejMnimvi8fgBS-47" edge="1">
          <mxGeometry width="50" height="50" relative="1" as="geometry">
            <mxPoint x="387.5" y="710" as="sourcePoint" />
            <mxPoint x="342.5" y="685" as="targetPoint" />
          </mxGeometry>
        </mxCell>
        <mxCell id="_OHZHRaOxq0N2sjxsKgl-36" value="" style="endArrow=classic;html=1;rounded=0;entryX=1;entryY=0.5;entryDx=0;entryDy=0;exitX=0;exitY=0.5;exitDx=0;exitDy=0;" parent="1" source="_OHZHRaOxq0N2sjxsKgl-34" target="3eyE_6HejMnimvi8fgBS-47" edge="1">
          <mxGeometry width="50" height="50" relative="1" as="geometry">
            <mxPoint x="417.5" y="860" as="sourcePoint" />
            <mxPoint x="377.5" y="860" as="targetPoint" />
          </mxGeometry>
        </mxCell>
        <mxCell id="_OHZHRaOxq0N2sjxsKgl-37" value="&amp;lt;&amp;lt;include&amp;gt;&amp;gt;" style="html=1;verticalAlign=bottom;labelBackgroundColor=none;endArrow=open;endFill=0;dashed=1;rounded=0;exitX=1;exitY=0.5;exitDx=0;exitDy=0;entryX=1;entryY=0.5;entryDx=0;entryDy=0;" parent="1" source="_OHZHRaOxq0N2sjxsKgl-34" target="_OHZHRaOxq0N2sjxsKgl-30" edge="1">
          <mxGeometry width="160" relative="1" as="geometry">
            <mxPoint x="645" y="-50" as="sourcePoint" />
            <mxPoint x="805" y="-50" as="targetPoint" />
          </mxGeometry>
        </mxCell>
        <mxCell id="_OHZHRaOxq0N2sjxsKgl-39" value="display booking successful" style="ellipse;whiteSpace=wrap;html=1;" parent="1" vertex="1">
          <mxGeometry x="340" y="560" width="120" height="40" as="geometry" />
        </mxCell>
        <mxCell id="_OHZHRaOxq0N2sjxsKgl-40" value="&amp;lt;&amp;lt;include&amp;gt;&amp;gt;" style="html=1;verticalAlign=bottom;labelBackgroundColor=none;endArrow=open;endFill=0;dashed=1;rounded=0;exitX=0.5;exitY=0;exitDx=0;exitDy=0;entryX=0.5;entryY=1;entryDx=0;entryDy=0;" parent="1" source="_OHZHRaOxq0N2sjxsKgl-33" target="_OHZHRaOxq0N2sjxsKgl-39" edge="1">
          <mxGeometry width="160" relative="1" as="geometry">
            <mxPoint x="538" y="910" as="sourcePoint" />
            <mxPoint x="400" y="740" as="targetPoint" />
          </mxGeometry>
        </mxCell>
        <mxCell id="_OHZHRaOxq0N2sjxsKgl-42" value="" style="endArrow=none;html=1;rounded=0;exitX=1;exitY=0.3333333333333333;exitDx=0;exitDy=0;exitPerimeter=0;entryX=0;entryY=0.5;entryDx=0;entryDy=0;" parent="1" source="3eyE_6HejMnimvi8fgBS-25" target="_OHZHRaOxq0N2sjxsKgl-88" edge="1">
          <mxGeometry width="50" height="50" relative="1" as="geometry">
            <mxPoint x="140" y="530" as="sourcePoint" />
            <mxPoint x="195.00000000000045" y="625" as="targetPoint" />
          </mxGeometry>
        </mxCell>
        <mxCell id="_OHZHRaOxq0N2sjxsKgl-47" value="" style="endArrow=none;html=1;rounded=0;exitX=1;exitY=0.5;exitDx=0;exitDy=0;entryX=0;entryY=0.3333333333333333;entryDx=0;entryDy=0;entryPerimeter=0;" parent="1" source="_OHZHRaOxq0N2sjxsKgl-44" target="_OHZHRaOxq0N2sjxsKgl-3" edge="1">
          <mxGeometry width="50" height="50" relative="1" as="geometry">
            <mxPoint x="450" y="420" as="sourcePoint" />
            <mxPoint x="610" y="360" as="targetPoint" />
          </mxGeometry>
        </mxCell>
        <mxCell id="_OHZHRaOxq0N2sjxsKgl-48" value="" style="endArrow=none;html=1;rounded=0;exitX=1;exitY=0.5;exitDx=0;exitDy=0;entryX=0;entryY=0.3333333333333333;entryDx=0;entryDy=0;entryPerimeter=0;" parent="1" source="_OHZHRaOxq0N2sjxsKgl-45" target="_OHZHRaOxq0N2sjxsKgl-3" edge="1">
          <mxGeometry width="50" height="50" relative="1" as="geometry">
            <mxPoint x="980" y="290" as="sourcePoint" />
            <mxPoint x="1030" y="340" as="targetPoint" />
          </mxGeometry>
        </mxCell>
        <mxCell id="_OHZHRaOxq0N2sjxsKgl-49" value="" style="endArrow=none;html=1;rounded=0;exitX=1;exitY=0.5;exitDx=0;exitDy=0;entryX=0;entryY=0.3333333333333333;entryDx=0;entryDy=0;entryPerimeter=0;" parent="1" source="_OHZHRaOxq0N2sjxsKgl-46" target="_OHZHRaOxq0N2sjxsKgl-3" edge="1">
          <mxGeometry width="50" height="50" relative="1" as="geometry">
            <mxPoint x="980" y="340" as="sourcePoint" />
            <mxPoint x="1030" y="340" as="targetPoint" />
          </mxGeometry>
        </mxCell>
        <mxCell id="_OHZHRaOxq0N2sjxsKgl-52" value="Add Vehicle" style="ellipse;whiteSpace=wrap;html=1;" parent="1" vertex="1">
          <mxGeometry x="425" y="940" width="120" height="40" as="geometry" />
        </mxCell>
        <mxCell id="_OHZHRaOxq0N2sjxsKgl-53" value="Update vehicle" style="ellipse;whiteSpace=wrap;html=1;" parent="1" vertex="1">
          <mxGeometry x="392.5" y="1000" width="120" height="40" as="geometry" />
        </mxCell>
        <mxCell id="_OHZHRaOxq0N2sjxsKgl-54" value="Delete Vehicle" style="ellipse;whiteSpace=wrap;html=1;" parent="1" vertex="1">
          <mxGeometry x="290" y="1050" width="120" height="40" as="geometry" />
        </mxCell>
        <mxCell id="_OHZHRaOxq0N2sjxsKgl-56" value="" style="endArrow=classic;html=1;rounded=0;entryX=1;entryY=0.5;entryDx=0;entryDy=0;exitX=0;exitY=0.5;exitDx=0;exitDy=0;" parent="1" source="_OHZHRaOxq0N2sjxsKgl-52" target="3eyE_6HejMnimvi8fgBS-50" edge="1">
          <mxGeometry width="50" height="50" relative="1" as="geometry">
            <mxPoint x="418" y="910" as="sourcePoint" />
            <mxPoint x="377" y="860" as="targetPoint" />
          </mxGeometry>
        </mxCell>
        <mxCell id="_OHZHRaOxq0N2sjxsKgl-57" value="" style="endArrow=classic;html=1;rounded=0;entryX=0.67;entryY=0.964;entryDx=0;entryDy=0;exitX=0;exitY=0.5;exitDx=0;exitDy=0;entryPerimeter=0;" parent="1" source="_OHZHRaOxq0N2sjxsKgl-54" target="3eyE_6HejMnimvi8fgBS-50" edge="1">
          <mxGeometry width="50" height="50" relative="1" as="geometry">
            <mxPoint x="435" y="970" as="sourcePoint" />
            <mxPoint x="368" y="925" as="targetPoint" />
          </mxGeometry>
        </mxCell>
        <mxCell id="_OHZHRaOxq0N2sjxsKgl-58" value="" style="endArrow=classic;html=1;rounded=0;entryX=1;entryY=1;entryDx=0;entryDy=0;exitX=0;exitY=0.5;exitDx=0;exitDy=0;" parent="1" source="_OHZHRaOxq0N2sjxsKgl-53" target="3eyE_6HejMnimvi8fgBS-50" edge="1">
          <mxGeometry width="50" height="50" relative="1" as="geometry">
            <mxPoint x="445" y="980" as="sourcePoint" />
            <mxPoint x="378" y="935" as="targetPoint" />
          </mxGeometry>
        </mxCell>
        <mxCell id="_OHZHRaOxq0N2sjxsKgl-61" value="" style="endArrow=none;html=1;rounded=0;exitX=1;exitY=0.5;exitDx=0;exitDy=0;entryX=0;entryY=0.3333333333333333;entryDx=0;entryDy=0;entryPerimeter=0;" parent="1" source="_OHZHRaOxq0N2sjxsKgl-62" target="_OHZHRaOxq0N2sjxsKgl-1" edge="1">
          <mxGeometry width="50" height="50" relative="1" as="geometry">
            <mxPoint x="930" y="655" as="sourcePoint" />
            <mxPoint x="378" y="785" as="targetPoint" />
          </mxGeometry>
        </mxCell>
        <mxCell id="_OHZHRaOxq0N2sjxsKgl-67" value="&amp;lt;&amp;lt;include&amp;gt;&amp;gt;" style="html=1;verticalAlign=bottom;labelBackgroundColor=none;endArrow=open;endFill=0;dashed=1;rounded=0;exitX=1;exitY=0.5;exitDx=0;exitDy=0;entryX=0;entryY=0.5;entryDx=0;entryDy=0;" parent="1" source="_OHZHRaOxq0N2sjxsKgl-52" target="_OHZHRaOxq0N2sjxsKgl-62" edge="1">
          <mxGeometry width="160" relative="1" as="geometry">
            <mxPoint x="538" y="770" as="sourcePoint" />
            <mxPoint x="590" y="505" as="targetPoint" />
          </mxGeometry>
        </mxCell>
        <mxCell id="_OHZHRaOxq0N2sjxsKgl-69" value="" style="endArrow=none;html=1;rounded=0;exitX=1;exitY=0.5;exitDx=0;exitDy=0;entryX=0;entryY=0.3333333333333333;entryDx=0;entryDy=0;entryPerimeter=0;" parent="1" source="_OHZHRaOxq0N2sjxsKgl-68" target="_OHZHRaOxq0N2sjxsKgl-1" edge="1">
          <mxGeometry width="50" height="50" relative="1" as="geometry">
            <mxPoint x="940" y="680" as="sourcePoint" />
            <mxPoint x="1040" y="670" as="targetPoint" />
          </mxGeometry>
        </mxCell>
        <mxCell id="_OHZHRaOxq0N2sjxsKgl-70" value="Add new drivers" style="ellipse;whiteSpace=wrap;html=1;" parent="1" vertex="1">
          <mxGeometry x="400" y="1100" width="120" height="40" as="geometry" />
        </mxCell>
        <mxCell id="_OHZHRaOxq0N2sjxsKgl-71" value="Update drivers" style="ellipse;whiteSpace=wrap;html=1;" parent="1" vertex="1">
          <mxGeometry x="400" y="1150" width="120" height="40" as="geometry" />
        </mxCell>
        <mxCell id="_OHZHRaOxq0N2sjxsKgl-72" value="assign to vehicles" style="ellipse;whiteSpace=wrap;html=1;" parent="1" vertex="1">
          <mxGeometry x="400" y="1200" width="120" height="40" as="geometry" />
        </mxCell>
        <mxCell id="_OHZHRaOxq0N2sjxsKgl-73" value="" style="endArrow=none;html=1;rounded=0;exitX=1;exitY=0.5;exitDx=0;exitDy=0;entryX=0;entryY=0.5;entryDx=0;entryDy=0;" parent="1" source="3eyE_6HejMnimvi8fgBS-49" target="_OHZHRaOxq0N2sjxsKgl-70" edge="1">
          <mxGeometry width="50" height="50" relative="1" as="geometry">
            <mxPoint x="138" y="940" as="sourcePoint" />
            <mxPoint x="215" y="1160" as="targetPoint" />
          </mxGeometry>
        </mxCell>
        <mxCell id="_OHZHRaOxq0N2sjxsKgl-74" value="" style="endArrow=none;html=1;rounded=0;exitX=1;exitY=0.5;exitDx=0;exitDy=0;entryX=0;entryY=0.5;entryDx=0;entryDy=0;" parent="1" source="3eyE_6HejMnimvi8fgBS-49" target="_OHZHRaOxq0N2sjxsKgl-71" edge="1">
          <mxGeometry width="50" height="50" relative="1" as="geometry">
            <mxPoint x="335" y="1160" as="sourcePoint" />
            <mxPoint x="410" y="1130" as="targetPoint" />
          </mxGeometry>
        </mxCell>
        <mxCell id="_OHZHRaOxq0N2sjxsKgl-75" value="" style="endArrow=none;html=1;rounded=0;exitX=1;exitY=0.5;exitDx=0;exitDy=0;entryX=0;entryY=0.5;entryDx=0;entryDy=0;" parent="1" source="3eyE_6HejMnimvi8fgBS-49" target="_OHZHRaOxq0N2sjxsKgl-72" edge="1">
          <mxGeometry width="50" height="50" relative="1" as="geometry">
            <mxPoint x="335" y="1160" as="sourcePoint" />
            <mxPoint x="410" y="1180" as="targetPoint" />
          </mxGeometry>
        </mxCell>
        <mxCell id="_OHZHRaOxq0N2sjxsKgl-76" value="Generate payment reports" style="ellipse;whiteSpace=wrap;html=1;" parent="1" vertex="1">
          <mxGeometry x="740" y="920" width="120" height="40" as="geometry" />
        </mxCell>
        <mxCell id="_OHZHRaOxq0N2sjxsKgl-77" value="" style="endArrow=none;html=1;rounded=0;exitX=1;exitY=0.5;exitDx=0;exitDy=0;entryX=0;entryY=0.3333333333333333;entryDx=0;entryDy=0;entryPerimeter=0;" parent="1" source="_OHZHRaOxq0N2sjxsKgl-76" target="_OHZHRaOxq0N2sjxsKgl-2" edge="1">
          <mxGeometry width="50" height="50" relative="1" as="geometry">
            <mxPoint x="880" y="855" as="sourcePoint" />
            <mxPoint x="980" y="780" as="targetPoint" />
          </mxGeometry>
        </mxCell>
        <mxCell id="_OHZHRaOxq0N2sjxsKgl-82" value="Manage payments" style="ellipse;whiteSpace=wrap;html=1;" parent="1" vertex="1">
          <mxGeometry x="740" y="970" width="120" height="40" as="geometry" />
        </mxCell>
        <mxCell id="_OHZHRaOxq0N2sjxsKgl-83" value="Display payment history" style="ellipse;whiteSpace=wrap;html=1;" parent="1" vertex="1">
          <mxGeometry x="740" y="1020" width="120" height="40" as="geometry" />
        </mxCell>
        <mxCell id="_OHZHRaOxq0N2sjxsKgl-84" value="" style="endArrow=none;html=1;rounded=0;exitX=1;exitY=0.5;exitDx=0;exitDy=0;entryX=0;entryY=0.3333333333333333;entryDx=0;entryDy=0;entryPerimeter=0;" parent="1" source="_OHZHRaOxq0N2sjxsKgl-82" target="_OHZHRaOxq0N2sjxsKgl-2" edge="1">
          <mxGeometry width="50" height="50" relative="1" as="geometry">
            <mxPoint x="870" y="950" as="sourcePoint" />
            <mxPoint x="980" y="990" as="targetPoint" />
          </mxGeometry>
        </mxCell>
        <mxCell id="_OHZHRaOxq0N2sjxsKgl-85" value="" style="endArrow=none;html=1;rounded=0;exitX=1;exitY=0.5;exitDx=0;exitDy=0;entryX=0;entryY=0.3333333333333333;entryDx=0;entryDy=0;entryPerimeter=0;" parent="1" source="_OHZHRaOxq0N2sjxsKgl-83" target="_OHZHRaOxq0N2sjxsKgl-2" edge="1">
          <mxGeometry width="50" height="50" relative="1" as="geometry">
            <mxPoint x="870" y="1000" as="sourcePoint" />
            <mxPoint x="980" y="990" as="targetPoint" />
          </mxGeometry>
        </mxCell>
        <mxCell id="_OHZHRaOxq0N2sjxsKgl-86" value="Payment history" style="ellipse;whiteSpace=wrap;html=1;" parent="1" vertex="1">
          <mxGeometry x="205" y="550" width="120" height="40" as="geometry" />
        </mxCell>
        <mxCell id="_OHZHRaOxq0N2sjxsKgl-87" value="" style="endArrow=none;html=1;rounded=0;exitX=1;exitY=0.3333333333333333;exitDx=0;exitDy=0;exitPerimeter=0;entryX=0;entryY=0.5;entryDx=0;entryDy=0;" parent="1" source="3eyE_6HejMnimvi8fgBS-25" target="_OHZHRaOxq0N2sjxsKgl-86" edge="1">
          <mxGeometry width="50" height="50" relative="1" as="geometry">
            <mxPoint x="140" y="530" as="sourcePoint" />
            <mxPoint x="230" y="755" as="targetPoint" />
          </mxGeometry>
        </mxCell>
        <mxCell id="_OHZHRaOxq0N2sjxsKgl-88" value="Booking status" style="ellipse;whiteSpace=wrap;html=1;" parent="1" vertex="1">
          <mxGeometry x="200" y="610" width="120" height="40" as="geometry" />
        </mxCell>
        <mxCell id="_OHZHRaOxq0N2sjxsKgl-96" value="" style="endArrow=none;html=1;rounded=0;exitX=1;exitY=0.5;exitDx=0;exitDy=0;entryX=0;entryY=0.3333333333333333;entryDx=0;entryDy=0;entryPerimeter=0;" parent="1" source="_OHZHRaOxq0N2sjxsKgl-95" target="_OHZHRaOxq0N2sjxsKgl-4" edge="1">
          <mxGeometry width="50" height="50" relative="1" as="geometry">
            <mxPoint x="900" y="1060" as="sourcePoint" />
            <mxPoint x="1010" y="1000" as="targetPoint" />
          </mxGeometry>
        </mxCell>
        <mxCell id="_OHZHRaOxq0N2sjxsKgl-100" value="" style="endArrow=none;html=1;rounded=0;exitX=1;exitY=0.5;exitDx=0;exitDy=0;entryX=0;entryY=0.3333333333333333;entryDx=0;entryDy=0;entryPerimeter=0;" parent="1" source="_OHZHRaOxq0N2sjxsKgl-98" target="_OHZHRaOxq0N2sjxsKgl-4" edge="1">
          <mxGeometry width="50" height="50" relative="1" as="geometry">
            <mxPoint x="940" y="1240" as="sourcePoint" />
            <mxPoint x="1000" y="1250" as="targetPoint" />
          </mxGeometry>
        </mxCell>
        <mxCell id="_OHZHRaOxq0N2sjxsKgl-101" value="" style="endArrow=none;html=1;rounded=0;exitX=1;exitY=0.5;exitDx=0;exitDy=0;entryX=0;entryY=0.3333333333333333;entryDx=0;entryDy=0;entryPerimeter=0;" parent="1" source="_OHZHRaOxq0N2sjxsKgl-99" target="_OHZHRaOxq0N2sjxsKgl-4" edge="1">
          <mxGeometry width="50" height="50" relative="1" as="geometry">
            <mxPoint x="940" y="1290" as="sourcePoint" />
            <mxPoint x="1010" y="1260" as="targetPoint" />
          </mxGeometry>
        </mxCell>
        <mxCell id="_OHZHRaOxq0N2sjxsKgl-103" value="" style="endArrow=none;html=1;rounded=0;exitX=1;exitY=0.5;exitDx=0;exitDy=0;entryX=0;entryY=0.3333333333333333;entryDx=0;entryDy=0;entryPerimeter=0;" parent="1" source="_OHZHRaOxq0N2sjxsKgl-102" target="_OHZHRaOxq0N2sjxsKgl-4" edge="1">
          <mxGeometry width="50" height="50" relative="1" as="geometry">
            <mxPoint x="940" y="1240" as="sourcePoint" />
            <mxPoint x="990" y="1240" as="targetPoint" />
          </mxGeometry>
        </mxCell>
        <mxCell id="_OHZHRaOxq0N2sjxsKgl-105" value="" style="endArrow=none;html=1;rounded=0;exitX=1;exitY=0.5;exitDx=0;exitDy=0;entryX=0;entryY=0.3333333333333333;entryDx=0;entryDy=0;entryPerimeter=0;" parent="1" source="_OHZHRaOxq0N2sjxsKgl-104" target="_OHZHRaOxq0N2sjxsKgl-1" edge="1">
          <mxGeometry width="50" height="50" relative="1" as="geometry">
            <mxPoint x="940" y="745" as="sourcePoint" />
            <mxPoint x="1040" y="670" as="targetPoint" />
          </mxGeometry>
        </mxCell>
        <mxCell id="_OHZHRaOxq0N2sjxsKgl-108" value="" style="endArrow=none;html=1;rounded=0;exitX=1;exitY=0.5;exitDx=0;exitDy=0;entryX=0;entryY=0.3333333333333333;entryDx=0;entryDy=0;entryPerimeter=0;" parent="1" source="_OHZHRaOxq0N2sjxsKgl-63" target="_OHZHRaOxq0N2sjxsKgl-3" edge="1">
          <mxGeometry width="50" height="50" relative="1" as="geometry">
            <mxPoint x="980" y="390" as="sourcePoint" />
            <mxPoint x="1030" y="340" as="targetPoint" />
          </mxGeometry>
        </mxCell>
        <mxCell id="_OHZHRaOxq0N2sjxsKgl-109" value="Approve or Reject hire" style="ellipse;whiteSpace=wrap;html=1;" parent="1" vertex="1">
          <mxGeometry x="200" y="1410" width="120" height="40" as="geometry" />
        </mxCell>
        <mxCell id="_OHZHRaOxq0N2sjxsKgl-110" value="" style="endArrow=none;html=1;rounded=0;exitX=1;exitY=0.3333333333333333;exitDx=0;exitDy=0;exitPerimeter=0;entryX=0;entryY=0.5;entryDx=0;entryDy=0;" parent="1" source="3eyE_6HejMnimvi8fgBS-62" target="_OHZHRaOxq0N2sjxsKgl-109" edge="1">
          <mxGeometry width="50" height="50" relative="1" as="geometry">
            <mxPoint x="100" y="1460" as="sourcePoint" />
            <mxPoint x="210" y="1450" as="targetPoint" />
          </mxGeometry>
        </mxCell>
        <mxCell id="_OHZHRaOxq0N2sjxsKgl-111" value="Check Shedule" style="ellipse;whiteSpace=wrap;html=1;" parent="1" vertex="1">
          <mxGeometry x="200" y="1460" width="120" height="40" as="geometry" />
        </mxCell>
        <mxCell id="_OHZHRaOxq0N2sjxsKgl-112" value="" style="endArrow=none;html=1;rounded=0;exitX=1;exitY=0.3333333333333333;exitDx=0;exitDy=0;exitPerimeter=0;entryX=0;entryY=0.5;entryDx=0;entryDy=0;" parent="1" source="3eyE_6HejMnimvi8fgBS-62" target="_OHZHRaOxq0N2sjxsKgl-111" edge="1">
          <mxGeometry width="50" height="50" relative="1" as="geometry">
            <mxPoint x="100" y="1460" as="sourcePoint" />
            <mxPoint x="210" y="1500" as="targetPoint" />
          </mxGeometry>
        </mxCell>
        <mxCell id="_OHZHRaOxq0N2sjxsKgl-113" value="view driver reviews" style="ellipse;whiteSpace=wrap;html=1;" parent="1" vertex="1">
          <mxGeometry x="200" y="1280" width="120" height="40" as="geometry" />
        </mxCell>
        <mxCell id="_OHZHRaOxq0N2sjxsKgl-114" value="" style="endArrow=none;html=1;rounded=0;exitX=1;exitY=0.3333333333333333;exitDx=0;exitDy=0;exitPerimeter=0;entryX=0;entryY=0.5;entryDx=0;entryDy=0;" parent="1" source="3eyE_6HejMnimvi8fgBS-62" target="_OHZHRaOxq0N2sjxsKgl-113" edge="1">
          <mxGeometry width="50" height="50" relative="1" as="geometry">
            <mxPoint x="70" y="1470" as="sourcePoint" />
            <mxPoint x="180" y="1405" as="targetPoint" />
          </mxGeometry>
        </mxCell>
        <mxCell id="_OHZHRaOxq0N2sjxsKgl-115" value="" style="endArrow=none;html=1;rounded=0;exitX=1;exitY=0.3333333333333333;exitDx=0;exitDy=0;exitPerimeter=0;entryX=0;entryY=0.5;entryDx=0;entryDy=0;" parent="1" source="3eyE_6HejMnimvi8fgBS-41" target="_OHZHRaOxq0N2sjxsKgl-113" edge="1">
          <mxGeometry width="50" height="50" relative="1" as="geometry">
            <mxPoint x="138" y="940" as="sourcePoint" />
            <mxPoint x="210" y="1230" as="targetPoint" />
          </mxGeometry>
        </mxCell>
        <mxCell id="sLSr8BiJlpKJVlTyRRLk-1" value="Driver Manager" style="shape=umlActor;verticalLabelPosition=bottom;verticalAlign=top;html=1;outlineConnect=0;" vertex="1" parent="1">
          <mxGeometry x="1050" y="390" width="30" height="60" as="geometry" />
        </mxCell>
        <mxCell id="sLSr8BiJlpKJVlTyRRLk-6" value="" style="endArrow=none;html=1;rounded=0;exitX=1;exitY=0.5;exitDx=0;exitDy=0;entryX=0;entryY=0.3333333333333333;entryDx=0;entryDy=0;entryPerimeter=0;" edge="1" parent="1" source="sLSr8BiJlpKJVlTyRRLk-4" target="sLSr8BiJlpKJVlTyRRLk-1">
          <mxGeometry width="50" height="50" relative="1" as="geometry">
            <mxPoint x="989.9999999999998" y="520" as="sourcePoint" />
            <mxPoint x="1049.9999999999998" y="540" as="targetPoint" />
          </mxGeometry>
        </mxCell>
        <mxCell id="sLSr8BiJlpKJVlTyRRLk-8" value="" style="endArrow=none;html=1;rounded=0;exitX=1;exitY=0.5;exitDx=0;exitDy=0;entryX=0;entryY=0.3333333333333333;entryDx=0;entryDy=0;entryPerimeter=0;" edge="1" parent="1" source="sLSr8BiJlpKJVlTyRRLk-7" target="sLSr8BiJlpKJVlTyRRLk-1">
          <mxGeometry width="50" height="50" relative="1" as="geometry">
            <mxPoint x="1000" y="530" as="sourcePoint" />
            <mxPoint x="1060" y="550" as="targetPoint" />
          </mxGeometry>
        </mxCell>
        <mxCell id="sLSr8BiJlpKJVlTyRRLk-10" value="" style="endArrow=none;html=1;rounded=0;exitX=1;exitY=0.5;exitDx=0;exitDy=0;entryX=0;entryY=0.3333333333333333;entryDx=0;entryDy=0;entryPerimeter=0;" edge="1" parent="1" source="sLSr8BiJlpKJVlTyRRLk-9" target="sLSr8BiJlpKJVlTyRRLk-1">
          <mxGeometry width="50" height="50" relative="1" as="geometry">
            <mxPoint x="980" y="555" as="sourcePoint" />
            <mxPoint x="1040" y="530" as="targetPoint" />
          </mxGeometry>
        </mxCell>
        <mxCell id="sLSr8BiJlpKJVlTyRRLk-13" value="Rental and hiring management system" style="shape=umlFrame;whiteSpace=wrap;html=1;pointerEvents=0;recursiveResize=0;container=1;collapsible=0;width=160;" vertex="1" parent="1">
          <mxGeometry y="-140" width="990" height="1680" as="geometry" />
        </mxCell>
        <mxCell id="_OHZHRaOxq0N2sjxsKgl-44" value="Vehicle Availability" style="ellipse;whiteSpace=wrap;html=1;" parent="sLSr8BiJlpKJVlTyRRLk-13" vertex="1">
          <mxGeometry x="720" y="240" width="120" height="40" as="geometry" />
        </mxCell>
        <mxCell id="_OHZHRaOxq0N2sjxsKgl-45" value="Vehicle Reviews check" style="ellipse;whiteSpace=wrap;html=1;" parent="sLSr8BiJlpKJVlTyRRLk-13" vertex="1">
          <mxGeometry x="760" y="300" width="120" height="40" as="geometry" />
        </mxCell>
        <mxCell id="_OHZHRaOxq0N2sjxsKgl-46" value="add vehicle to system" style="ellipse;whiteSpace=wrap;html=1;" parent="sLSr8BiJlpKJVlTyRRLk-13" vertex="1">
          <mxGeometry x="760" y="350" width="120" height="40" as="geometry" />
        </mxCell>
        <mxCell id="_OHZHRaOxq0N2sjxsKgl-63" value="Schedule maintenance" style="ellipse;whiteSpace=wrap;html=1;" parent="sLSr8BiJlpKJVlTyRRLk-13" vertex="1">
          <mxGeometry x="730" y="410" width="120" height="40" as="geometry" />
        </mxCell>
        <mxCell id="sLSr8BiJlpKJVlTyRRLk-4" value="add driver to system" style="ellipse;whiteSpace=wrap;html=1;" vertex="1" parent="sLSr8BiJlpKJVlTyRRLk-13">
          <mxGeometry x="830" y="450" width="120" height="40" as="geometry" />
        </mxCell>
        <mxCell id="sLSr8BiJlpKJVlTyRRLk-7" value="Manage drivers" style="ellipse;whiteSpace=wrap;html=1;" vertex="1" parent="sLSr8BiJlpKJVlTyRRLk-13">
          <mxGeometry x="820" y="510" width="120" height="40" as="geometry" />
        </mxCell>
        <mxCell id="sLSr8BiJlpKJVlTyRRLk-9" value="check driver reviews" style="ellipse;whiteSpace=wrap;html=1;" vertex="1" parent="sLSr8BiJlpKJVlTyRRLk-13">
          <mxGeometry x="830" y="570" width="120" height="40" as="geometry" />
        </mxCell>
        <mxCell id="_OHZHRaOxq0N2sjxsKgl-62" value="" style="ellipse;whiteSpace=wrap;html=1;" parent="sLSr8BiJlpKJVlTyRRLk-13" vertex="1">
          <mxGeometry x="760" y="705" width="150" height="60" as="geometry" />
        </mxCell>
        <mxCell id="_OHZHRaOxq0N2sjxsKgl-64" value="maintenance check" style="text;html=1;strokeColor=none;fillColor=none;align=center;verticalAlign=middle;whiteSpace=wrap;rounded=0;" parent="sLSr8BiJlpKJVlTyRRLk-13" vertex="1">
          <mxGeometry x="780" y="705" width="110" height="30" as="geometry" />
        </mxCell>
        <mxCell id="_OHZHRaOxq0N2sjxsKgl-65" value="" style="endArrow=none;html=1;rounded=0;entryX=1;entryY=0.5;entryDx=0;entryDy=0;exitX=0;exitY=0.5;exitDx=0;exitDy=0;" parent="sLSr8BiJlpKJVlTyRRLk-13" source="_OHZHRaOxq0N2sjxsKgl-62" target="_OHZHRaOxq0N2sjxsKgl-62" edge="1">
          <mxGeometry width="50" height="50" relative="1" as="geometry">
            <mxPoint x="690" y="855" as="sourcePoint" />
            <mxPoint x="740" y="805" as="targetPoint" />
          </mxGeometry>
        </mxCell>
        <mxCell id="_OHZHRaOxq0N2sjxsKgl-89" value="if maintanance fail" style="text;html=1;strokeColor=none;fillColor=none;align=center;verticalAlign=middle;whiteSpace=wrap;rounded=0;" parent="sLSr8BiJlpKJVlTyRRLk-13" vertex="1">
          <mxGeometry x="780" y="735" width="110" height="30" as="geometry" />
        </mxCell>
        <mxCell id="_OHZHRaOxq0N2sjxsKgl-90" value="notify owner with next procedere&amp;nbsp;" style="ellipse;whiteSpace=wrap;html=1;" parent="sLSr8BiJlpKJVlTyRRLk-13" vertex="1">
          <mxGeometry x="680" y="605" width="130" height="50" as="geometry" />
        </mxCell>
        <mxCell id="_OHZHRaOxq0N2sjxsKgl-92" value="&amp;lt;&amp;lt;extend&amp;gt;&amp;gt;" style="html=1;verticalAlign=bottom;labelBackgroundColor=none;endArrow=open;endFill=0;dashed=1;rounded=0;exitX=0.5;exitY=1;exitDx=0;exitDy=0;entryX=0.5;entryY=0;entryDx=0;entryDy=0;" parent="sLSr8BiJlpKJVlTyRRLk-13" source="_OHZHRaOxq0N2sjxsKgl-90" target="_OHZHRaOxq0N2sjxsKgl-64" edge="1">
          <mxGeometry x="-0.0022" width="160" relative="1" as="geometry">
            <mxPoint x="680" y="205" as="sourcePoint" />
            <mxPoint x="810" y="555" as="targetPoint" />
            <mxPoint as="offset" />
          </mxGeometry>
        </mxCell>
        <mxCell id="_OHZHRaOxq0N2sjxsKgl-93" value="display fail to confirm vehicle&amp;nbsp;" style="ellipse;whiteSpace=wrap;html=1;" parent="sLSr8BiJlpKJVlTyRRLk-13" vertex="1">
          <mxGeometry x="650" y="520" width="130" height="50" as="geometry" />
        </mxCell>
        <mxCell id="_OHZHRaOxq0N2sjxsKgl-94" value="&amp;lt;&amp;lt;include&amp;gt;&amp;gt;" style="html=1;verticalAlign=bottom;labelBackgroundColor=none;endArrow=open;endFill=0;dashed=1;rounded=0;exitX=0.5;exitY=0;exitDx=0;exitDy=0;entryX=0.5;entryY=1;entryDx=0;entryDy=0;" parent="sLSr8BiJlpKJVlTyRRLk-13" source="_OHZHRaOxq0N2sjxsKgl-90" target="_OHZHRaOxq0N2sjxsKgl-93" edge="1">
          <mxGeometry width="160" relative="1" as="geometry">
            <mxPoint x="518" y="975" as="sourcePoint" />
            <mxPoint x="570" y="570" as="targetPoint" />
          </mxGeometry>
        </mxCell>
        <mxCell id="_OHZHRaOxq0N2sjxsKgl-68" value="Manage employees" style="ellipse;whiteSpace=wrap;html=1;" parent="sLSr8BiJlpKJVlTyRRLk-13" vertex="1">
          <mxGeometry x="790" y="780" width="120" height="40" as="geometry" />
        </mxCell>
        <mxCell id="_OHZHRaOxq0N2sjxsKgl-104" value="Assign tasks" style="ellipse;whiteSpace=wrap;html=1;" parent="sLSr8BiJlpKJVlTyRRLk-13" vertex="1">
          <mxGeometry x="780" y="840" width="120" height="40" as="geometry" />
        </mxCell>
        <mxCell id="_OHZHRaOxq0N2sjxsKgl-95" value="Mange employee profiles" style="ellipse;whiteSpace=wrap;html=1;" parent="sLSr8BiJlpKJVlTyRRLk-13" vertex="1">
          <mxGeometry x="750" y="1350" width="120" height="40" as="geometry" />
        </mxCell>
        <mxCell id="_OHZHRaOxq0N2sjxsKgl-98" value="Assign Salary" style="ellipse;whiteSpace=wrap;html=1;" parent="sLSr8BiJlpKJVlTyRRLk-13" vertex="1">
          <mxGeometry x="750" y="1400" width="120" height="40" as="geometry" />
        </mxCell>
        <mxCell id="_OHZHRaOxq0N2sjxsKgl-99" value="Generate reports" style="ellipse;whiteSpace=wrap;html=1;" parent="sLSr8BiJlpKJVlTyRRLk-13" vertex="1">
          <mxGeometry x="750" y="1450" width="120" height="40" as="geometry" />
        </mxCell>
        <mxCell id="_OHZHRaOxq0N2sjxsKgl-102" value="Employee perfomance" style="ellipse;whiteSpace=wrap;html=1;" parent="sLSr8BiJlpKJVlTyRRLk-13" vertex="1">
          <mxGeometry x="750" y="1300" width="120" height="40" as="geometry" />
        </mxCell>
        <mxCell id="sLSr8BiJlpKJVlTyRRLk-12" value="Employee reviews" style="ellipse;whiteSpace=wrap;html=1;" vertex="1" parent="sLSr8BiJlpKJVlTyRRLk-13">
          <mxGeometry x="750" y="1250" width="120" height="40" as="geometry" />
        </mxCell>
        <mxCell id="sLSr8BiJlpKJVlTyRRLk-39" value="Manage customer profiles" style="ellipse;whiteSpace=wrap;html=1;" vertex="1" parent="sLSr8BiJlpKJVlTyRRLk-13">
          <mxGeometry x="710" y="40" width="120" height="40" as="geometry" />
        </mxCell>
        <mxCell id="sLSr8BiJlpKJVlTyRRLk-41" value="check customer reviews" style="ellipse;whiteSpace=wrap;html=1;" vertex="1" parent="sLSr8BiJlpKJVlTyRRLk-13">
          <mxGeometry x="710" y="90" width="120" height="40" as="geometry" />
        </mxCell>
        <mxCell id="_OHZHRaOxq0N2sjxsKgl-16" value="Display error" style="ellipse;whiteSpace=wrap;html=1;" parent="sLSr8BiJlpKJVlTyRRLk-13" vertex="1">
          <mxGeometry x="510" y="130" width="120" height="40" as="geometry" />
        </mxCell>
        <mxCell id="sLSr8BiJlpKJVlTyRRLk-43" value="manage customer complains" style="ellipse;whiteSpace=wrap;html=1;" vertex="1" parent="sLSr8BiJlpKJVlTyRRLk-13">
          <mxGeometry x="710" y="140" width="120" height="40" as="geometry" />
        </mxCell>
        <mxCell id="sLSr8BiJlpKJVlTyRRLk-14" value="" style="endArrow=none;html=1;rounded=0;exitX=1;exitY=0.5;exitDx=0;exitDy=0;entryX=0;entryY=0.3333333333333333;entryDx=0;entryDy=0;entryPerimeter=0;" edge="1" parent="1" source="sLSr8BiJlpKJVlTyRRLk-12" target="_OHZHRaOxq0N2sjxsKgl-4">
          <mxGeometry width="50" height="50" relative="1" as="geometry">
            <mxPoint x="940" y="1190" as="sourcePoint" />
            <mxPoint x="1070" y="1240" as="targetPoint" />
          </mxGeometry>
        </mxCell>
        <mxCell id="sLSr8BiJlpKJVlTyRRLk-15" value="Customer managert" style="shape=umlActor;verticalLabelPosition=bottom;verticalAlign=top;html=1;outlineConnect=0;" vertex="1" parent="1">
          <mxGeometry x="1040" y="-50" width="30" height="60" as="geometry" />
        </mxCell>
        <mxCell id="sLSr8BiJlpKJVlTyRRLk-40" value="" style="endArrow=none;html=1;rounded=0;exitX=1;exitY=0.5;exitDx=0;exitDy=0;entryX=0;entryY=0.3333333333333333;entryDx=0;entryDy=0;entryPerimeter=0;" edge="1" parent="1" source="sLSr8BiJlpKJVlTyRRLk-39" target="sLSr8BiJlpKJVlTyRRLk-15">
          <mxGeometry width="50" height="50" relative="1" as="geometry">
            <mxPoint x="860" y="30" as="sourcePoint" />
            <mxPoint x="1080" y="150" as="targetPoint" />
          </mxGeometry>
        </mxCell>
        <mxCell id="sLSr8BiJlpKJVlTyRRLk-42" value="" style="endArrow=none;html=1;rounded=0;exitX=1;exitY=0.5;exitDx=0;exitDy=0;entryX=0;entryY=0.3333333333333333;entryDx=0;entryDy=0;entryPerimeter=0;" edge="1" parent="1" source="sLSr8BiJlpKJVlTyRRLk-41" target="sLSr8BiJlpKJVlTyRRLk-15">
          <mxGeometry width="50" height="50" relative="1" as="geometry">
            <mxPoint x="890" y="-90" as="sourcePoint" />
            <mxPoint x="1080" y="-50" as="targetPoint" />
          </mxGeometry>
        </mxCell>
        <mxCell id="sLSr8BiJlpKJVlTyRRLk-44" value="" style="endArrow=none;html=1;rounded=0;exitX=1;exitY=0.5;exitDx=0;exitDy=0;entryX=0;entryY=0.3333333333333333;entryDx=0;entryDy=0;entryPerimeter=0;" edge="1" parent="1" source="sLSr8BiJlpKJVlTyRRLk-43" target="sLSr8BiJlpKJVlTyRRLk-15">
          <mxGeometry width="50" height="50" relative="1" as="geometry">
            <mxPoint x="890" y="-40" as="sourcePoint" />
            <mxPoint x="1080" y="-50" as="targetPoint" />
          </mxGeometry>
        </mxCell>
      </root>
    </mxGraphModel>
  </diagram>
</mxfile>
